<svg xmlns="http://www.w3.org/2000/svg" viewBox="0 0 46.2 40.7">
  <path fill="#D79330" d="M12.8,38.7c-1.8,0-3.4-0.4-4.8-1.2c-2.4-1.5-4.2-4-5.2-7.6s-1.1-7.3-0.1-11.2C3.9,14.5,6,10.8,9.2,7.9
    S16,3.1,20.1,2.3V6c-2.9,1.1-5.3,2.8-7.5,5.2c-2.2,2.5-3.8,5.1-4.6,7.9c-0.3,1.1-0.5,2.4-0.5,3.8s0.4,1.7,1.3,0.9
    c1.2-0.7,2.5-1.1,3.9-1.1c2.2-0.1,4,0.7,5.6,2.2c1.6,1.6,2.4,3.5,2.4,5.6c0,2.3-0.7,4.2-2.2,5.7C17,37.9,15.1,38.7,12.8,38.7z
     M35.7,38.7c-1.8,0-3.4-0.4-4.8-1.2c-2.4-1.5-4.2-4-5.2-7.6s-1.1-7.3-0.1-11.2c1.1-4.3,3.3-7.9,6.5-10.9C35.2,5,38.9,3.1,43,2.3V6
    c-2.9,1.1-5.3,2.8-7.5,5.2c-2.2,2.5-3.8,5.1-4.6,7.9c-0.3,1.1-0.5,2.4-0.5,3.8s0.4,1.7,1.3,0.9c1.2-0.7,2.5-1.1,3.9-1.1
    c2.2-0.1,4,0.7,5.6,2.2c1.6,1.6,2.4,3.5,2.4,5.6c0,2.3-0.8,4.2-2.2,5.7C39.8,37.9,37.9,38.7,35.7,38.7z"/>
</svg>
