<?xml version="1.0" encoding="utf-8"?>
<svg version="1.1" xmlns="http://www.w3.org/2000/svg" xmlns:xlink="http://www.w3.org/1999/xlink" 
    viewBox="0 0 8192 1792">
    <rect x="0" y="0" width="8192" height="1792" fill="#FFFCF6"/>
    
    <path fill="#D79330" d="M994.2,113.6C893.9,159,686.8,364,475.3,220.5C223.9,49.9,0.1,567.2-1.5,913.9C-1.6,927.3-1.6,940-1.6,954
        c0,1.1,1.5,2.2,1.5,3.2c3.2,55.9,265.1-24.2,285.6,4.9c158.1,224.9,533.1-153.9,790.6-141.6c431.3,20.5,765.2-122.6,669.3-411
        C1683.5,223.5,1358.4-51.5,994.2,113.6z"/>
    
    <path fill="#F19888" d="M8263.9,692.2c0,0-307.4-436.3-774.2-432.5c0,0-227.7-11.4-466.8,98.6c-239.1,110-482,242.8-732.4,72.1
        C6040,259.7,5607.4,39.6,5231.7,24.5c0,0-630-30.4-573,440.1c0,0,15.2,481.9,531.3,656.4l1442.1,295.9l998.1-148l607.2-148
        L8263.9,692.2z"/>
    
    <path fill="#F0D9C7" d="M-1.6,954c3.8,157.5,343.4,585.7,1517.9,166.9c814-290.3,1464.7,533.4,2376.4,594.9
        c47.8,3.2,93.8,3.5,138,1.2c26,4.1,52.8,7.3,80.5,9.4c35,2.6,70,2.5,104.8,1.2c58.1-2.1,116.4-7.5,174.1-15.3
        c14.9-2,29.7-4.5,44.7-6.3c31.1-3.6,62.8-5.5,93.2-10.6c74.7-12.6,149.1-26.1,223.1-40.3c53.6-10.2,106.4-22.2,159.8-33
        c23.2-4.7,47.3-7.8,70.5-12.6c79.3-16.3,158.3-32.9,237.4-49.5c20.2-4.2,40.6-8.4,60.7-12.8c29.5-6.6,58.8-13.7,88.5-19.9
        c12.4-2.6,25.9-3.5,38.6-5.6c38.3-6.3,76.1-14.9,114.7-18.9c43-4.4,86.8-4.6,130.3-6.5c4-0.2,8,0.4,11.8,0.8
        c48.8,5.4,97.8,9.9,144,19.9c55.8,12,104.4,28.9,149.1,49.1c50.4,22.7,101,45.4,150.6,68.6c39.9,18.7,85.9,32.6,133.3,45.4
        c14.5,3.9,30.1,6.8,45.1,10.2c44.3,10.1,86.9,22,135.2,27.9c30.5,3.7,60.7,8.3,89.6,14.1c36.3,7.3,74.3,10.5,113.4,12.4
        c46.8,2.4,93.4,2.8,141.2-2.3c23.2-2.5,47.3-2.1,69.8-5.8c46.1-7.6,89.8-19.7,136.8-26.6c28.2-4.1,54.8-13.2,82-20.2
        c17.7-4.6,35.3-9.4,52.8-14.2c43.7-12,89.6-22.1,130.7-36.3c70.2-24.4,138.1-51,205.9-77.5c46.1-18,90.6-37.3,135.7-56.2
        c29.7-12.4,58.8-25.3,88.8-37.5c30.6-12.5,60.5-26,93.1-36.7c76.7-25.1,154.8-48.7,232.3-73.1c10.8-3.4,20.2-8.5,31.4-11.2
        c53-13,107-24.7,159.4-38.4c20.4-5.3,39.9-9.3,61.5-10.2l-12.6-174.4l0,0c127.7-58.5,235.5-118.6,325.3-176.1L8526,599.6
        c0,0-79.1,50.1-252.9,109.2c-108.5-29.4-621-146-1193.2,89.6c0,0-607.2,379.4-1062.6-30.4c0,0-398.5-436.3-1229.6-220.1
        c0,0-614.8,174.5-1191.6-189.7C2870.7-99.8,1900.9,54.7,1442,158.3C431,441.7-1.6,954-1.6,954z"/>
</svg>
