<svg xmlns="http://www.w3.org/2000/svg" viewBox="0 0 8192 1792">
  <rect x="-57.8" y="954.6" width="8308.5" height="970.1" fill="#FFFCF6"/>
  <path fill="#D79330" d="M7198.9,113.3c100.3,45.4,307.4,250.5,519,107c251.6-170.6,475.5,346.8,477,693.7c0.1,13.4,0.1,26.1,0.1,40.1c0,1.1-1.5,2.2-1.5,3.2c-3.2,55.9-265.2-24.2-285.7,4.9c-158.2,225-533.3-153.9-790.9-141.7c-431.5,20.5-765.5-122.6-669.5-411.2C6509.3,223.3,6834.6-51.8,7198.9,113.3z"/>
  <path fill="#F19888" d="M-73.4,692.2c0,0,307.5-436.5,774.5-432.7c0,0,227.8-11.4,467,98.7s482.1,242.9,732.7,72.1s683.3-391,1059.1-406.2c0,0,630.2-30.4,573.2,440.3c0,0-15.2,482-531.5,656.6L1559,1417l-998.4-148l-607.4-148L-73.4,692.2z"/>
  <path fill="#F0D9C7" d="M6751,158.1c-459.1-103.6-1429.2-258.3-2154.9,200C4019.1,722.5,3404,547.9,3404,547.9C2572.6,331.6,2174,768,2174,768c-455.6,409.9-1063,30.4-1063,30.4C538.6,562.7,26,679.4-82.6,708.7c-173.8-59.2-252.9-109.3-252.9-109.3l-31.8,348.8c89.9,57.5,197.7,117.7,325.4,176.1l0,0l-12.6,174.5c21.6,0.9,41.2,4.8,61.5,10.2c52.4,13.7,106.5,25.4,159.5,38.4c11.2,2.7,20.6,7.8,31.4,11.2c77.5,24.4,155.7,48,232.4,73.1c32.7,10.7,62.5,24.1,93.1,36.7c29.9,12.3,59.1,25.1,88.8,37.5c45.1,18.9,89.6,38.2,135.7,56.2c67.8,26.5,135.7,53.1,205.9,77.5c41.1,14.3,87,24.4,130.7,36.4c17.6,4.8,35.1,9.6,52.9,14.2c27.2,7,53.8,16.1,82.1,20.2c47,6.8,90.7,18.9,136.9,26.6c22.5,3.7,46.6,3.4,69.9,5.8c47.7,5.1,94.4,4.6,141.2,2.3c39.2-2,77.2-5.2,113.5-12.4c29-5.8,59.1-10.4,89.7-14.1c48.3-5.9,90.9-17.8,135.2-27.9c15-3.4,30.7-6.3,45.1-10.2c47.4-12.9,93.4-26.8,133.4-45.5c49.6-23.2,100.2-45.9,150.6-68.6c44.8-20.2,93.3-37.1,149.1-49.1c46.2-10,95.3-14.4,144-19.9c3.8-0.4,7.8-1,11.8-0.8c43.5,1.9,87.3,2.2,130.3,6.5c38.7,3.9,76.5,12.5,114.7,18.9c12.8,2.1,26.2,3,38.7,5.6c29.7,6.3,58.9,13.4,88.5,19.9c20.1,4.5,40.4,8.6,60.7,12.8c79.1,16.5,158.2,33.2,237.5,49.5c23.2,4.8,47.3,7.9,70.5,12.6c53.4,10.8,106.1,22.8,159.8,33c74.1,14.1,148.5,27.7,223.2,40.3c30.4,5.1,62.2,7,93.2,10.6c15,1.7,29.8,4.2,44.7,6.3c57.7,7.9,116.1,13.2,174.2,15.3c34.8,1.3,69.8,1.3,104.8-1.2c27.8-2,54.6-5.3,80.6-9.4c44.2,2.3,90.2,2.1,138-1.2c912-61.5,1562.9-885.4,2377.2-595.1c1175,419,1514.7-9.4,1518.5-166.9C8195,954.1,7762.3,441.6,6751,158.1z"/>
</svg>
